<?xml version="1.0" encoding="utf-8"?>
<!-- Generator: Adobe Illustrator 18.1.0, SVG Export Plug-In . SVG Version: 6.00 Build 0)  -->
<svg version="1.1" id="图层_1" xmlns="http://www.w3.org/2000/svg" xmlns:xlink="http://www.w3.org/1999/xlink" x="0px" y="0px"
	 viewBox="-1317 326.4 200 200" enable-background="new -1317 326.4 200 200" xml:space="preserve">
<circle fill="#FDDA06" cx="-1217" cy="426.4" r="100.3"/>
<path fill="#333333" d="M-1151.8,436.4h-130.5c-5.5,0-10-4.5-10-10l0,0c0-5.5,4.5-10,10-10h130.5c5.5,0,10,4.5,10,10l0,0
	C-1141.8,431.9-1146.3,436.4-1151.8,436.4z"/>
<path fill="#333333" d="M-1207,361.1v130.5c0,5.5-4.5,10-10,10l0,0c-5.5,0-10-4.5-10-10V361.1c0-5.5,4.5-10,10-10l0,0
	C-1211.5,351.1-1207,355.6-1207,361.1z"/>
</svg>
