<?xml version="1.0" encoding="utf-8"?>
<!-- Generator: Adobe Illustrator 18.1.0, SVG Export Plug-In . SVG Version: 6.00 Build 0)  -->
<svg version="1.1" id="图层_1" xmlns="http://www.w3.org/2000/svg" xmlns:xlink="http://www.w3.org/1999/xlink" x="0px" y="0px"
	 viewBox="-1317 326.4 200.2 200" enable-background="new -1317 326.4 200.2 200" xml:space="preserve">
<circle opacity="0.6" cx="-1217.5" cy="425.9" r="99.5"/>
<path fill="#FFFFFF" d="M-1160.2,388.3h-20.3l-10.6-16.8h-52.9l-10.6,16.8h-20.3c-4.4,0-13.2,4.2-13.2,12.4v67.2
	c0,6.9,6.6,12.6,12.3,12.6h115.7c5.8,0,12.9-5.9,12.9-12.4v-67.2C-1147,396.7-1151.4,388.3-1160.2,388.3z M-1155.8,468
	c0,1.7-2.8,4-4.1,4.1h-115.7c-1-0.1-3.5-2-3.5-4.2v-67.2c0-2.7,3.7-4,4.4-4.1h20.3h5l2.6-4.1l8-12.7h43.2l7.9,12.7l2.4,4.1h5h20.3
	c3.1,0,4.4,3.9,4.4,4.2V468z"/>
<path fill="#FFFFFF" d="M-1217.5,400.8c-17,0-30.8,13.1-30.8,29.3c0,16.2,13.8,29.3,30.8,29.3c17,0,30.8-13.1,30.8-29.3
	C-1186.6,414-1200.4,400.8-1217.5,400.8z M-1217.5,451.1c-12.1,0-22-9.4-22-20.9c0-11.5,9.9-20.9,22-20.9c12.1,0,22,9.4,22,20.9
	C-1195.4,441.7-1205.3,451.1-1217.5,451.1z"/>
</svg>
