<?xml version="1.0" standalone="no"?><!DOCTYPE svg PUBLIC "-//W3C//DTD SVG 1.1//EN" "http://www.w3.org/Graphics/SVG/1.1/DTD/svg11.dtd"><svg t="1515161834842" class="icon" style="" viewBox="0 0 1024 1024" version="1.1" xmlns="http://www.w3.org/2000/svg" p-id="997" xmlns:xlink="http://www.w3.org/1999/xlink" width="200" height="200"><defs><style type="text/css"></style></defs><path d="M947.216 889.613L568.371 510.77l376.78-376.78c15.524-15.525 15.524-40.694 0-56.219-15.525-15.524-40.697-15.524-56.221 0L512.15 454.55 135.371 77.77c-15.524-15.524-40.696-15.524-56.22 0s-15.525 40.694 0 56.219l376.779 376.78L77.084 889.613c-15.525 15.527-15.525 40.696 0 56.22 7.762 7.764 17.936 11.645 28.11 11.645s20.348-3.882 28.11-11.644L512.15 566.988l378.846 378.846c7.763 7.763 17.936 11.644 28.11 11.644s20.348-3.882 28.11-11.644c15.526-15.525 15.526-40.694 0.001-56.22z" fill="#999999" p-id="998"></path></svg>