<?xml version="1.0" encoding="utf-8"?>
<!-- Generator: Adobe Illustrator 18.1.0, SVG Export Plug-In . SVG Version: 6.00 Build 0)  -->
<svg version="1.1" id="图层_1" xmlns="http://www.w3.org/2000/svg" xmlns:xlink="http://www.w3.org/1999/xlink" x="0px" y="0px"
	 viewBox="0 0 2834.6 850.4" enable-background="new 0 0 2834.6 850.4" xml:space="preserve">
<g>
	<g>
		<defs>
			<rect id="SVGID_1_" x="1059" y="88.4" width="715.9" height="673.9"/>
		</defs>
		<clipPath id="SVGID_2_">
			<use xlink:href="#SVGID_1_"  overflow="visible"/>
		</clipPath>
		<path clip-path="url(#SVGID_2_)" fill="#E89028" d="M1267.9,455.7l-16.2,58.9c-3.5,12.7-0.3,26.4,8.6,36.1
			c8.9,9.8,22.1,14.3,35.1,12l76.7-13.5c7.8-1.4,15-5.1,20.6-10.7L1720,210.3c9.5-9.5,14.7-22.1,14.7-35.4c0-13.4-5.2-26-14.7-35.4
			l-35.6-35.6c-9.5-9.5-22.1-14.7-35.4-14.7c-13.4,0-26,5.2-35.5,14.7l-335.7,334.8C1273.1,443.4,1269.7,449.3,1267.9,455.7
			L1267.9,455.7z M1305,465.9L1640.8,131c2.2-2.2,5.2-3.4,8.3-3.4c3.1,0,6.1,1.2,8.2,3.4l35.6,35.6c4.5,4.5,4.5,11.9,0,16.5
			l-327.4,328.2l-76.7,13.5L1305,465.9z M1305,465.9"/>
		<path clip-path="url(#SVGID_2_)" fill="#E89028" d="M1755.3,305.9c-10.6,0-19.2,8.6-19.2,19.2v304.3c0,13.4-10.9,24.4-24.4,24.4
			h-222.8c-5,0-9.7,1.9-13.3,5.3l-59.3,56.8l-64.6-57.3c-3.5-3.1-8.1-4.8-12.8-4.8h-217c-13.4,0-24.4-10.9-24.4-24.4V171.2
			c0-13.4,10.9-24.4,24.4-24.4h276.7c10.6,0,19.2-8.6,19.2-19.2c0-10.6-8.6-19.2-19.2-19.2h-276.7c-34.7,0-62.9,28.2-62.9,62.9
			v458.2c0,34.7,28.2,62.9,62.9,62.9h209.7l72.4,64.2c3.5,3.1,8.1,4.8,12.8,4.8c4.8,0,9.6-1.8,13.3-5.3l66.6-63.7h215.1
			c34.7,0,62.9-28.2,62.9-62.9V325.1C1774.5,314.5,1765.9,305.9,1755.3,305.9L1755.3,305.9z M1755.3,305.9"/>
	</g>
</g>
</svg>
