<?xml version="1.0" standalone="no"?><!DOCTYPE svg PUBLIC "-//W3C//DTD SVG 1.1//EN" "http://www.w3.org/Graphics/SVG/1.1/DTD/svg11.dtd"><svg t="1513677858850" class="icon" style="" viewBox="0 0 1098 1024" version="1.1" xmlns="http://www.w3.org/2000/svg" p-id="26924" xmlns:xlink="http://www.w3.org/1999/xlink" width="214.453125" height="200"><defs><style type="text/css"></style></defs><path d="M73.142857 658.465306C73.142857 698.78408 106.000413 731.428571 146.532263 731.428571L435.801589 731.428571 644.925937 935.068731C673.536549 962.929039 698.332829 953.310007 699.737095 913.026158L706.06746 731.428571 951.059855 731.428571C991.173116 731.428571 1024 698.761805 1024 658.465306L1024 146.106123C1024 105.787348 991.301873 73.142857 950.966685 73.142857L146.17617 73.142857C105.873512 73.142857 73.142857 105.809624 73.142857 146.106123L73.142857 658.465306ZM0 146.106123C0 65.404396 65.487327 0 146.17617 0L950.966685 0C1031.686107 0 1097.142857 65.380179 1097.142857 146.106123L1097.142857 658.465306C1097.142857 739.119927 1031.606469 804.571429 951.059855 804.571429L776.798658 801.885681 772.835551 915.57432C769.218761 1019.328289 667.967334 1059.598175 593.897805 987.471089L402.285714 804.571429 146.532263 804.571429C65.695462 804.571429 0 739.271205 0 658.465306L0 146.106123Z" p-id="26925" fill="#999999"></path><path d="M337.269029 329.142857l109.714286 0 0 146.285714-109.714286 0 0-146.285714Z" p-id="26926" fill="#999999"></path><path d="M654.222629 329.142857l109.714286 0 0 146.285714-109.714286 0 0-146.285714Z" p-id="26927" fill="#999999"></path></svg>