<?xml version="1.0" standalone="no"?><!DOCTYPE svg PUBLIC "-//W3C//DTD SVG 1.1//EN" "http://www.w3.org/Graphics/SVG/1.1/DTD/svg11.dtd"><svg t="1516349388731" class="icon" style="" viewBox="0 0 1024 1024" version="1.1" xmlns="http://www.w3.org/2000/svg" p-id="8339" xmlns:xlink="http://www.w3.org/1999/xlink" width="200" height="200"><defs><style type="text/css"></style></defs><path d="M826.8 537.1c-0.3-31.3-0.6-74.1 0.2-124.5 0.1-6.9-3.3-13.3-9.1-17.1-5.8-3.7-13.1-4.3-19.3-1.4-42.5 19.7-81.6 50.2-116.3 90.7-6 7-13.1 8.4-18 8.4-9.8 0-21.5-6.2-23.8-20-13-76.3-20.9-190.5 15.5-301.6 2.8-8.4-0.3-17.6-7.6-22.6-7.2-5-16.9-4.7-23.9 0.7-70.8 56.3-153.4 169.1-210.3 253.8-8.7 12.9-20.8 14.9-27.2 14.9-15.8 0-33.1-11.2-33.8-32.1-0.6-18.2 0.3-39.5 2.7-63.3 0.8-7.9-3.1-15.4-10-19.4-6.8-3.9-15.4-3.5-21.7 1.2-48.7 35.5-79.4 92.5-96.6 134.1C209 483.8 197 533.3 197 565.1c0 85.6 37.3 165.9 105 226 62.5 55.5 143.9 87.3 223.3 87.3 118.6 0 199.5-30.6 247.3-93.5 48.2-63.4 54.3-150.8 54.3-219.9 0-7.2 0-16.8-0.1-27.9z m-86.1 223.7c-39.7 52.3-110.2 77.7-215.4 77.7-136.3 0-288.2-112.3-288.2-273.4 0-41.2 26.5-133.8 76-194.4-0.1 5.9 0 11.5 0.2 16.9 0.7 20.4 9.2 38.8 24 52 13.6 12.1 31.3 18.8 49.7 18.8 24.5 0 46.6-11.9 60.5-32.6 35.1-52.4 95.1-137.3 153-198.8-18.2 95.7-10.7 187.6 0.5 253 5.3 30.8 31.9 53.2 63.3 53.2 18.8 0 36-8 48.3-22.4 22.8-26.6 47.6-48.3 74-64.8-0.2 36.7 0 68.5 0.2 91.4 0.1 11 0.2 20.5 0.2 27.7-0.1 93.3-14.3 153.6-46.3 195.7z" p-id="8340" fill="#e89028"></path></svg>