<?xml version="1.0" encoding="utf-8"?>
<!-- Generator: Adobe Illustrator 18.1.0, SVG Export Plug-In . SVG Version: 6.00 Build 0)  -->
<svg version="1.1" id="图层_1" xmlns="http://www.w3.org/2000/svg" xmlns:xlink="http://www.w3.org/1999/xlink" x="0px" y="0px"
	 viewBox="0 0 2834.6 850.4" enable-background="new 0 0 2834.6 850.4" xml:space="preserve">
<g>
	<g>
		<defs>
			<rect id="SVGID_1_" x="1099" y="118.4" width="634.8" height="613.9"/>
		</defs>
		<clipPath id="SVGID_2_">
			<use xlink:href="#SVGID_1_"  overflow="visible"/>
		</clipPath>
		<path clip-path="url(#SVGID_2_)" fill="#E89028" d="M1099,300.6c-0.2-91.4,67.8-168.5,158.4-180c97.6-12.4,187.7,55.2,202.7,152.2
			c1.4,9.3,2,18.8,1.7,28.2c-0.4,13.2-9.7,22.8-22.8,22.9c-13.1,0.1-23-9-23.4-22.2c-1-34.2-11.4-64.8-34.5-90.4
			c-23.7-26.3-53.2-41.3-88.6-44.6c-72-6.9-134.7,44.6-145.4,112.9c-4.3,27.3,0.1,54,8.5,80c14,42.5,37,80.3,63.2,116.2
			c46.3,62.9,101,118,159.2,169.8c11.1,9.8,22.6,19.2,33.8,29c3.1,2.8,5.1,2.8,8.3,0.1c71.1-59.7,137.5-124,192.9-198.9
			c26.4-35.8,49.4-73.5,63.3-116.2c10.3-31.6,14.2-63.8,5-96.5c-14.9-52.7-63.4-92.1-117.7-96.5c-23.8-1.8-47.6,2.3-69.4,12
			c-11.2,4.9-22.4,1.7-28.9-7.4c-6.4-9-5.7-21.2,1.8-29.4c3.1-3.2,7-5.7,11.2-7.2c67.3-27.2,130.7-19.9,187.5,25.3
			c50,39.7,71.7,93.6,67,157.1c-3.2,43.5-19.6,83.2-40.4,121.1c-31.7,57.8-73,108.6-117.9,156.5c-43.8,46.5-90.8,89.7-140.8,129.5
			c-11.7,9.4-22.5,10-33.4,1.3c-82.7-66.3-158.6-139.3-221.1-225.2c-29.5-40.6-54.7-83.6-69.6-131.9
			C1102.9,346,1098.5,323.7,1099,300.6L1099,300.6z M1099,300.6"/>
	</g>
</g>
</svg>
