<?xml version="1.0" standalone="no"?><!DOCTYPE svg PUBLIC "-//W3C//DTD SVG 1.1//EN" "http://www.w3.org/Graphics/SVG/1.1/DTD/svg11.dtd"><svg t="1515145131231" class="icon" style="" viewBox="0 0 1024 1024" version="1.1" xmlns="http://www.w3.org/2000/svg" p-id="4032" xmlns:xlink="http://www.w3.org/1999/xlink" width="200" height="200"><defs><style type="text/css"></style></defs><path d="M512 82.464153c-244.63772 0-442.955484 171.85302-442.955484 383.832945 0 125.44199 69.434395 236.8258 176.814008 306.863946-0.502443 56.870242 0.00307 168.373779 0.00307 168.373779s107.36938-70.083172 159.796426-102.527095c34.066887 7.272637 69.684082 11.135618 106.34198 11.135618 244.63772 0 442.955484-171.85302 442.955484-383.846248C954.955484 254.318196 756.63772 82.464153 512 82.464153zM299.631218 524.982686c-32.576953 0-58.988486-26.244734-58.988486-58.647725 0-32.386618 26.41051-58.652841 58.988486-58.652841s58.988486 26.266224 58.988486 58.652841C358.618681 498.737952 332.208171 524.982686 299.631218 524.982686zM520.987698 524.982686c-32.580023 0-58.988486-26.244734-58.988486-58.647725 0-32.386618 26.408463-58.652841 58.988486-58.652841 32.574906 0 58.988486 26.266224 58.988486 58.652841C579.976184 498.737952 553.562605 524.982686 520.987698 524.982686zM742.342132 524.982686c-32.574906 0-58.988486-26.244734-58.988486-58.647725 0-32.386618 26.41358-58.652841 58.988486-58.652841 32.576953 0 58.988486 26.266224 58.988486 58.652841C801.330618 498.737952 774.919085 524.982686 742.342132 524.982686z" p-id="4033" fill="#ffffff"></path></svg>