<?xml version="1.0" encoding="utf-8"?>
<!-- Generator: Adobe Illustrator 16.0.0, SVG Export Plug-In . SVG Version: 6.00 Build 0)  -->
<!DOCTYPE svg PUBLIC "-//W3C//DTD SVG 1.1//EN" "http://www.w3.org/Graphics/SVG/1.1/DTD/svg11.dtd">
<svg version="1.1" id="图层_1" xmlns="http://www.w3.org/2000/svg" xmlns:xlink="http://www.w3.org/1999/xlink" x="0px" y="0px"
	 width="300px" height="200px" viewBox="0 0 300 200" enable-background="new 0 0 300 200" xml:space="preserve">
<path display="none" fill="#E6E6E6" d="M281.262,0H17.989C8.095,0,0,7.129,0,16.738v165.89c0,4.378,1.69,8.39,4.458,11.465
	C7.971,197.759,13.193,200,18.743,200h263.269c9.893,0,17.988-7.125,17.988-16.733V17.371c0-4.378-1.686-8.391-4.459-11.466
	C292.029,2.246,286.813,0,281.262,0L281.262,0z M150,180.303c-2.512,0.374-5.168,0.721-7.98,1.043
	c-4.984,0.576-10.005,1.057-15.052,1.456c-5.06,0.39-9.899,0.717-14.533,0.933c-4.637,0.234-8.66,0.345-12.063,0.345
	c-3.414,0-7.376-0.11-11.895-0.345c-4.52-0.221-9.191-0.549-14.001-0.933c-4.816-0.399-9.606-0.854-14.368-1.365
	c-4.743-0.519-9.054-1.062-12.942-1.625c-3.87-0.563-7.159-1.134-9.859-1.707c-2.701-0.571-4.404-1.135-5.104-1.71
	c-1.18-0.913-2.089-3.701-2.734-8.365c-0.648-4.666-0.382-10.699,0.788-18.098c0.591-4.215,2.325-7.426,5.208-9.656
	c2.869-2.21,6.212-3.982,10.033-5.291c3.81-1.297,7.773-2.467,11.89-3.5c4.098-1.023,7.745-2.506,10.915-4.437
	c2.468-1.476,4.35-2.911,5.625-4.272c1.306-1.365,2.239-2.73,2.827-4.097c0.581-1.37,0.881-2.791,0.881-4.276
	c0-1.472-0.055-3.117-0.181-4.947c-0.229-2.62-1.175-4.7-2.82-6.229c-1.641-1.539-3.463-3.101-5.459-4.698
	c-0.933-0.797-1.76-1.917-2.467-3.325c-0.7-1.428-1.343-2.879-1.934-4.36c-0.589-1.707-1.169-3.528-1.768-5.457
	c-0.82-0.234-1.641-0.628-2.468-1.2c-0.7-0.568-1.458-1.365-2.279-2.381c-0.824-1.028-1.527-2.507-2.112-4.451
	c-0.713-1.942-0.97-3.704-0.796-5.291c0.168-1.591,0.5-2.965,0.969-4.091c0.467-1.263,1.234-2.447,2.289-3.591
	c-0.109-4.326,0.114-8.651,0.711-12.981c0.469-3.645,1.322-7.563,2.545-11.774c1.25-4.214,3.082-7.969,5.549-11.271
	c2.234-3.196,4.736-5.787,7.491-7.773c2.761-1.994,5.571-3.556,8.458-4.7c2.869-1.139,5.752-1.899,8.626-2.309
	c2.869-0.393,5.663-0.596,8.372-0.596c3.409,0,6.778,0.375,10.117,1.111c3.346,0.745,6.496,1.725,9.435,2.99
	c2.926,1.245,5.545,2.673,7.828,4.268c2.299,1.597,4.093,3.184,5.376,4.783c3.056,3.639,5.284,7.657,6.697,12.041
	c1.413,4.38,2.398,8.563,2.988,12.551c0.594,4.551,0.881,9.161,0.881,13.833c0.822,0.569,1.467,1.303,1.936,2.208
	c0.467,0.797,0.848,1.831,1.146,3.085c0.301,1.255,0.327,2.786,0.088,4.599c-0.241,2.399-0.729,4.308-1.496,5.716
	c-0.767,1.431-1.621,2.547-2.556,3.34c-1.06,0.922-2.167,1.539-3.341,1.888c-0.588,1.924-1.179,3.75-1.773,5.457
	c-0.588,1.481-1.254,2.933-2.022,4.36c-0.767,1.409-1.614,2.527-2.555,3.325c-2.216,1.708-4.049,3.159-5.451,4.355
	c-1.415,1.197-2.348,3.212-2.817,6.066c-0.352,1.707-0.477,3.442-0.352,5.211c0.114,1.76,0.614,3.527,1.496,5.298
	c0.881,1.758,2.229,3.435,4.059,5.031c1.817,1.593,4.365,3.019,7.649,4.278c2.942,1.134,6.138,2.162,9.601,3.068
	c0.907,0.238,1.804,0.484,2.691,0.744v47.717H150z M165.398,41.498h92.563c3.841,0,6.956,3.017,6.956,6.744
	c0,3.729-3.115,6.752-6.956,6.752h-92.563c-3.841,0-6.956-3.023-6.956-6.752C158.442,44.515,161.558,41.498,165.398,41.498
	L165.398,41.498z M265.998,85.907c0,3.729-3.113,6.75-6.957,6.75h-24.955c-3.844,0-6.965-3.015-6.965-6.75
	c0-3.722,3.121-6.744,6.965-6.744h24.955C262.885,79.163,265.998,82.186,265.998,85.907L265.998,85.907z M198.573,85.907
	c0,3.729-3.115,6.75-6.962,6.75h-24.955c-3.844,0-6.96-3.015-6.96-6.75c0-3.722,3.116-6.744,6.96-6.744h24.955
	C195.458,79.163,198.573,82.186,198.573,85.907L198.573,85.907z M191.611,164.107h-24.955c-3.844,0-6.96-3.023-6.96-6.752
	c0-3.727,3.116-6.744,6.96-6.744h24.955c3.847,0,6.962,3.018,6.962,6.744C198.573,161.084,195.458,164.107,191.611,164.107
	L191.611,164.107z M166.656,126.812c-3.844,0-6.96-3.017-6.96-6.747c0-3.727,3.116-6.75,6.96-6.75h92.559
	c3.844,0,6.957,3.023,6.957,6.75c0,3.73-3.113,6.747-6.957,6.747H166.656z"/>
<path fill="#E6E6E6" d="M281.721,0H18.027C8.112,0,0,7.111,0,16.725v166.148c0,4.406,1.703,8.413,4.507,11.518
	c3.505,3.705,8.713,5.909,14.321,5.909h263.594c9.915,0,18.027-7.111,18.027-16.726V17.426c0-4.407-1.703-8.413-4.508-11.517
	C292.437,2.203,287.229,0,281.721,0L281.721,0z M35.453,41.562h92.739c3.806,0,7.011,3.004,7.011,6.71
	c0,3.705-3.105,6.81-7.011,6.81H35.453c-3.806,0-7.01-3.004-7.01-6.81C28.442,44.566,31.647,41.562,35.453,41.562L35.453,41.562z
	 M136.203,86.029c0,3.705-3.104,6.71-7.01,6.71h-25.038c-3.806,0-7.01-3.005-7.01-6.71c0-3.706,3.105-6.71,7.01-6.71h25.038
	C133.099,79.319,136.203,82.323,136.203,86.029L136.203,86.029z M68.703,86.029c0,3.705-3.104,6.71-7.01,6.71H36.655
	c-3.806,0-7.01-3.005-7.01-6.71c0-3.706,3.104-6.71,7.01-6.71h25.038C65.598,79.319,68.703,82.323,68.703,86.029L68.703,86.029z
	 M61.692,164.346H36.655c-3.806,0-7.01-3.005-7.01-6.811c0-3.705,3.104-6.71,7.01-6.71h25.038c3.806,0,7.01,3.005,7.01,6.71
	C68.703,161.341,65.598,164.346,61.692,164.346L61.692,164.346z M36.755,126.989c-3.806,0-7.011-3.004-7.011-6.71
	c0-3.705,3.105-6.71,7.011-6.71h92.738c3.806,0,7.011,3.005,7.011,6.71c0,3.706-3.104,6.71-7.011,6.71H36.755z M280.719,100.15
	c0,22.534-18.227,40.76-40.76,40.76c-22.534,0-40.761-18.227-40.761-40.76s18.227-40.761,40.761-40.761
	C262.492,59.389,280.719,77.616,280.719,100.15z"/>
<circle opacity="0.6" enable-background="new    " cx="150" cy="100" r="61.252"/>
<path fill="#FFFFFF" d="M185.364,76.792h-12.496l-6.525-10.342h-32.566l-6.525,10.342h-12.497c-2.708,0-8.125,2.586-8.125,7.634
	v41.368c0,4.248,4.063,7.758,7.572,7.758h71.225c3.571,0,7.941-3.633,7.941-7.635V84.548
	C193.49,81.963,190.782,76.792,185.364,76.792z M188.073,125.855c0,1.047-1.724,2.463-2.523,2.523h-71.226
	c-0.616-0.061-2.155-1.23-2.155-2.586V84.425c0-1.662,2.278-2.462,2.709-2.524h12.497h3.078l1.601-2.524l4.925-7.818h26.594
	l4.863,7.818l1.478,2.524h3.078h12.496c1.908,0,2.709,2.401,2.709,2.585v41.369H188.073z"/>
<path fill="#FFFFFF" d="M150,81.963c-10.465,0-18.96,8.064-18.96,18.037s8.496,18.037,18.96,18.037
	c10.465,0,18.961-8.064,18.961-18.037C169.021,90.089,160.526,81.963,150,81.963z M150,112.928c-7.449,0-13.543-5.787-13.543-12.866
	c0-7.08,6.094-12.866,13.543-12.866c7.45,0,13.543,5.787,13.543,12.866C163.604,107.141,157.51,112.928,150,112.928z"/>
</svg>
