<?xml version="1.0" encoding="utf-8"?>
<!-- Generator: Adobe Illustrator 18.1.0, SVG Export Plug-In . SVG Version: 6.00 Build 0)  -->
<svg version="1.1" id="图层_1" xmlns="http://www.w3.org/2000/svg" xmlns:xlink="http://www.w3.org/1999/xlink" x="0px" y="0px"
	 viewBox="0 0 2834.6 850.4" enable-background="new 0 0 2834.6 850.4" xml:space="preserve">
<g>
	<path fill="#E89028" d="M1675.2,55.4c33,0,59.7,26.1,59.7,58.4v570.6l5.6-13.5l-129.4,131.7l14.3-6h-467.9
		c-32.9,0-59.7-26.3-59.7-58.5V55.4H1675.2z M1058,16.4v721.7c0,53.8,44.6,97.5,99.5,97.5h476.4l5.9-6l129.4-131.7l5.6-5.7V113.8
		c0-53.8-44.6-97.4-99.6-97.4H1058z M1595.7,582c-33.1,0-59.8,26.1-59.8,58.5v117.1c0,10.8,8.9,19.5,19.9,19.5
		c11,0,19.9-8.7,19.9-19.5V640.5c0-10.8,8.9-19.5,20-19.5h89.5c11,0,19.9-8.7,19.9-19.5c0-10.8-8.9-19.5-19.9-19.5H1595.7z
		 M1626.9,191.9c11,0,19.9-8.7,19.9-19.5c0-10.8-8.9-19.5-19.9-19.5h-409.6c-11,0-19.9,8.7-19.9,19.5c0,10.8,8.9,19.5,19.9,19.5
		H1626.9z M1626.9,309c11,0,19.9-8.7,19.9-19.5c0-10.8-8.9-19.5-19.9-19.5h-409.6c-11,0-19.9,8.7-19.9,19.5
		c0,10.8,8.9,19.5,19.9,19.5H1626.9z M1626.9,445.5c11,0,19.9-8.7,19.9-19.5c0-10.8-8.9-19.5-19.9-19.5h-409.6
		c-11,0-19.9,8.7-19.9,19.5c0,10.8,8.9,19.5,19.9,19.5H1626.9z M1626.9,445.5"/>
</g>
</svg>
