<?xml version="1.0" encoding="utf-8"?>
<!-- Generator: Adobe Illustrator 18.1.0, SVG Export Plug-In . SVG Version: 6.00 Build 0)  -->
<svg version="1.1" id="图层_1" xmlns="http://www.w3.org/2000/svg" xmlns:xlink="http://www.w3.org/1999/xlink" x="0px" y="0px"
	 viewBox="0 0 2834.6 850.4" enable-background="new 0 0 2834.6 850.4" xml:space="preserve">
<g>
	<g>
		<defs>
			<rect id="SVGID_1_" x="1108" y="64.4" width="616.8" height="722.9"/>
		</defs>
		<clipPath id="SVGID_2_">
			<use xlink:href="#SVGID_1_"  overflow="visible"/>
		</clipPath>
		<path clip-path="url(#SVGID_2_)" fill="#E89028" d="M1649.8,244c2.9-8.2,4.9-16.8,4.9-26.2v-25.4c0-42.2-34.4-77-77-77h-88.5
			c-8.2-1.2-31.1-21.3-47.1-41.4c-4.9-6.1-12.3-9-20.9-9.4c-8.2,0.4-15.6,4.1-20.1,10.6c-13.1,18.8-32.8,38.5-38.9,40.1h-91.3
			c-42.6,0-77,34.4-77,77c0,14.3,11.5,25.4,25.4,25.4s25.4-11.5,25.4-25.4c0-13.9,11.5-25.4,25.4-25.4h92.2
			c21.7,0,44.2-18.8,60.6-36.9c18,18,42.2,36.9,65.1,36.9h88.9c13.9,0,25.4,11.5,25.4,25.4v25.4c0,10.6-6.6,20.1-16,23.8h-401.4
			c-42.6,0-77,34.4-77,76.6v391.2c0,42.2,34.4,77,77,77h462.8c42.2,0,77-34.4,77-77V320.6C1724.3,279.2,1691.2,245.2,1649.8,244
			L1649.8,244z M1673.1,709.3c0,13.9-11.5,25.4-25.4,25.4h-462.8c-13.9,0-25.4-11.5-25.4-25.4V322.2c0-14.3,11.5-27.4,25.4-27.4
			h462.8c14.3,0,25.4,11.5,25.4,25.4V709.3z M1673.1,709.3"/>
	</g>
	<path fill="#E89028" d="M1556,409.5l-186.8,188.8l-82.7-84.8c-9.8-10.2-26.2-10.2-36-0.4c-10.2,9.8-10.2,26.2-0.4,36l100.8,103.6
		c1.6,1.6,3.7,2.5,5.3,3.7c0.8,0.4,1.6,1.2,2.9,2.1c3.3,1.2,6.6,2,9.8,2c3.3,0,6.6-0.8,9.4-2c0.8-0.4,1.6-1.2,2.9-1.6
		c2-1.2,4.1-2,5.7-3.7l204.8-207.3c9.8-10.2,9.8-26.2,0-36C1582.2,399.2,1566.2,399.2,1556,409.5L1556,409.5z M1556,409.5"/>
</g>
</svg>
