<?xml version="1.0" standalone="no"?><!DOCTYPE svg PUBLIC "-//W3C//DTD SVG 1.1//EN" "http://www.w3.org/Graphics/SVG/1.1/DTD/svg11.dtd"><svg t="1513677939529" class="icon" style="" viewBox="0 0 1024 1024" version="1.1" xmlns="http://www.w3.org/2000/svg" p-id="27642" xmlns:xlink="http://www.w3.org/1999/xlink" width="200" height="200"><defs><style type="text/css"></style></defs><path d="M911.929 696.144c-91.373-57.534-105.296-65.56-137.443-60.479-32.15 5.073-41.701 11.973-87.968 76.969-6.538 7.983-68.614 104.042-291.387-109.954C231.8 434.268 280.165 373.155 311.069 333.545c26.874-25.096 57.019-36.228 61.48-81.069 1.927-20.647-0.735-62.959-68.543-155.899-45.442-66.374-54.479-71.689-84.811-72.301-30.332-0.602-78.674 14.414-128.369 54.479-49.147 33.02-64.307 71.722-69.552 117.08-5.537 57.181-16.444 250.748 228.847 521.05 245.294 270.306 562.346 328.422 672.831 251.728 47.599-33.778 86.488-108.888 88.165-157.229C1017.083 778.035 1003.302 753.668 911.929 696.144z" p-id="27643" fill="#ff5d57"></path></svg>