<svg id="Layer_1" data-name="Layer 1" xmlns="http://www.w3.org/2000/svg" xmlns:xlink="http://www.w3.org/1999/xlink" viewBox="0 0 793.55 793.46"><defs><style>.cls-1{fill:none;}.cls-2{clip-path:url(#clip-path);}.cls-3{fill:#666;}</style><clipPath id="clip-path" transform="translate(-243 -115.46)"><rect class="cls-1" x="243" y="115" width="793.92" height="794.88"/></clipPath></defs><title>搜索</title><g class="cls-2"><path class="cls-3" d="M1029.1,852.1a32.84,32.84,0,0,1-4,45.71,31.82,31.82,0,0,1-44.86,3.45l-.39-.35L813.31,732.14a1.69,1.69,0,0,0-.88-.88c-148,122.42-367.24,101.64-489.65-46.38S221.15,317.67,369.14,195.25,736.4,93.61,858.8,241.62a347.79,347.79,0,0,1,2,440.87c.43.44,1.32.44,1.76.88ZM592.68,186.29c-152.93-.48-277.27,123.09-277.75,276S438,739.57,590.92,740,868.21,617,868.68,464v-.87c0-152.58-123.43-276.41-276-276.88Zm0,0" transform="translate(-243 -115.46)"/></g></svg>