<?xml version="1.0" encoding="utf-8"?>
<!-- Generator: Adobe Illustrator 18.1.0, SVG Export Plug-In . SVG Version: 6.00 Build 0)  -->
<svg version="1.1" id="图层_1" xmlns="http://www.w3.org/2000/svg" xmlns:xlink="http://www.w3.org/1999/xlink" x="0px" y="0px"
	 viewBox="-1317 326.4 200 200" enable-background="new -1317 326.4 200 200" xml:space="preserve">
<g>
	<path fill="#FFFFFF" d="M-1195.2,387.2c-2.9,0-5.3,2.4-5.3,5.3v67.6c0,2.9,2.4,5.3,5.3,5.3c2.9,0,5.3-2.4,5.3-5.3v-67.6
		C-1189.9,389.6-1192.3,387.2-1195.2,387.2z M-1238.8,387.2c-2.9,0-5.3,2.4-5.3,5.3v67.6c0,2.9,2.4,5.3,5.3,5.3
		c2.9,0,5.3-2.4,5.3-5.3v-67.6C-1233.5,389.6-1235.8,387.2-1238.8,387.2z"/>
	<path fill="#FFFFFF" d="M-1217,326.4c-55.1,0-100,44.9-100,100s44.9,100,100,100s100-44.9,100-100S-1161.9,326.4-1217,326.4z
		 M-1217,513.9c-48.3,0-87.5-39.3-87.5-87.5s39.3-87.5,87.5-87.5s87.5,39.3,87.5,87.5S-1168.8,513.9-1217,513.9z"/>
</g>
</svg>
