<?xml version="1.0" standalone="no"?><!DOCTYPE svg PUBLIC "-//W3C//DTD SVG 1.1//EN" "http://www.w3.org/Graphics/SVG/1.1/DTD/svg11.dtd"><svg t="1513678079008" class="icon" style="" viewBox="0 0 1024 1024" version="1.1" xmlns="http://www.w3.org/2000/svg" p-id="29116" xmlns:xlink="http://www.w3.org/1999/xlink" width="200" height="200"><defs><style type="text/css"></style></defs><path d="M511.322 52.007c-241.466 0-437.213 195.747-437.213 437.237 0 241.479 195.747 437.226 437.213 437.226 241.481 0 437.229-195.747 437.229-437.226 0-241.49-195.748-437.237-437.229-437.237zM510.744 852.735c-201.221 0-364.344-163.123-364.344-364.358 0-201.24 163.123-364.363 364.344-364.363 201.235 0 364.357 163.123 364.357 364.363 0 201.235-163.122 364.358-364.357 364.358z" p-id="29117" fill="#999999"></path><path d="M702.985588 508.134112c-0.011506 0-0.022052 0.000959-0.033558 0.000959l0-0.000959L520.572644 508.134112 520.572644 289.409438l-0.000959 0c0-0.011506 0.000959-0.023011 0.000959-0.034517 0-20.10415-16.301543-36.401858-36.412404-36.401858-20.10415 0-36.401858 16.297708-36.401858 36.401858 0 0.011506 0.000959 0.023011 0.000959 0.034517l-0.000959 0 0 218.724674 0 1.951161 0 70.862142 255.193648 0 0-0.000959c0.011506 0 0.022052 0.000959 0.033558 0.000959 20.103191 0 36.400899-16.297708 36.400899-36.402816C739.386487 524.442367 723.088779 508.134112 702.985588 508.134112z" p-id="29118" fill="#999999"></path></svg>