<?xml version="1.0" standalone="no"?><!DOCTYPE svg PUBLIC "-//W3C//DTD SVG 1.1//EN" "http://www.w3.org/Graphics/SVG/1.1/DTD/svg11.dtd"><svg t="1513677788068" class="icon" style="" viewBox="0 0 1024 1024" version="1.1" xmlns="http://www.w3.org/2000/svg" p-id="26206" xmlns:xlink="http://www.w3.org/1999/xlink" width="200" height="200"><defs><style type="text/css"></style></defs><path d="M978.03264 414.02368c-25.63072-32.32256-64-50.85184-105.25184-50.85184h-234.89024c12.83072-35.76832 21.30944-74.63936 24.33536-112.24576 4.69504-58.48576-4.30592-110.43328-25.99424-150.22592-26.71104-48.95232-72.17664-79.48288-131.50208-88.29952-26.87488-3.9936-49.98656 1.17248-68.69504 15.34464-37.83168 28.66176-44.7744 83.2-52.81792 146.35008-6.43072 50.48832-13.71648 107.70432-38.1952 148.71552-16.34304 27.37664-48.14848 63.76448-135.33696 63.76448H118.69696c-60.59008 0-109.88544 49.28-109.88544 109.84448v415.28832c0 60.55936 49.29536 109.84448 109.88544 109.84448h662.88128a134.8608 134.8608 0 0 0 83.46624-29.06624 134.8352 134.8352 0 0 0 47.31904-74.624l91.20256-389.86752c9.39008-40.13568 0.08192-81.67424-25.53344-113.9712zM82.048 911.70816v-415.2832c0-20.18304 16.44032-36.60288 36.64384-36.60288h77.2096v488.48384h-77.2096c-20.20352 0-36.64384-16.4096-36.64384-36.59776z m850.19136-400.39424l-91.19744 389.87776a60.80512 60.80512 0 0 1-59.4688 47.11424H269.14304V454.50752c61.8752-11.81184 108.42624-43.32032 138.77248-94.15168 32.32256-54.13888 40.6272-119.41888 47.96416-177.00864 3.30752-26.02496 6.44096-50.60096 11.41248-69.45792 5.32992-20.224 10.84928-26.15296 12.97408-27.76064 2.432-1.83808 7.04512-2.27328 13.71136-1.28 36.74112 5.45792 62.24384 22.1184 77.96224 50.92864 32.23552 59.10016 17.99168 158.85824-12.74368 226.84672a52.07552 52.07552 0 0 0 3.68128 49.91488 52.03456 52.03456 0 0 0 43.904 23.87968h266.0096c18.75968 0 36.20352 8.4224 47.86176 23.12192a60.5952 60.5952 0 0 1 11.58656 51.77344z" p-id="26207" fill="#999999"></path></svg>